# xmcd
#
# Track frame offsets:
#	150
#	7164
#	34634
#	58578
#	79295
#	102711
#	106742
#	129361
#	153354
#	176766
#
# Disc length: 2425 seconds
#
# Revision: 0
# Processed by: cddbd v1.5.2PL0 Copyright (c) Steve Scherf et al.
# Submitted via: dBpowerAMP V4.0
#
DISCID=7d09770a
DTITLE=Dixur - Aamare maina
DYEAR=2011
DGENRE=simanta
TTITLE0=ippo[
TTITLE1=iioi-
TTITLE2=[
TTITLE3=;klk';l
TTITLE4=jhhjlb
TTITLE5=htjhtjy
TTITLE6=htyjytku
TTITLE7=jykyuklu
TTITLE8=jykukl
TTITLE9=jykukl
EXTD=
EXTT0=
EXTT1=
EXTT2=
EXTT3=
EXTT4=
EXTT5=
EXTT6=
EXTT7=
EXTT8=
EXTT9=
PLAYORDER=
